<svg xmlns="http://www.w3.org/2000/svg" version="1.1" xmlns:xlink="http://www.w3.org/1999/xlink" xmlns:svgjs="http://svgjs.dev/svgjs" viewBox="0 0 2400 800" opacity="1"><defs><linearGradient x1="50%" y1="0%" x2="50%" y2="100%" id="sssurf-grad"><stop stop-color="#f3721cff" stop-opacity="1" offset="0%"></stop><stop stop-color="#f8f8f8ff" stop-opacity="1" offset="100%"></stop></linearGradient></defs><g fill="url(#sssurf-grad)" transform="matrix(1,0,0,1,0,-42.244232177734375)"><path d="M 0 335.76200816048805 Q 191.70278090296625 450 480 322.2783080622799 Q 654.9880919997761 450 960 335.7427451363986 Q 1284.036405968946 450 1440 333.8863397897317 Q 1659.2760041395434 450 1920 309.4884967905272 Q 2165.1162132047107 450 2400 311.94648378426706 L 2400 800 L 0 800 L 0 336.5848592521413 Z" transform="matrix(1,0,0,1,0,35)" opacity="0.05"></path><path d="M 0 335.76200816048805 Q 191.70278090296625 450 480 322.2783080622799 Q 654.9880919997761 450 960 335.7427451363986 Q 1284.036405968946 450 1440 333.8863397897317 Q 1659.2760041395434 450 1920 309.4884967905272 Q 2165.1162132047107 450 2400 311.94648378426706 L 2400 800 L 0 800 L 0 336.5848592521413 Z" transform="matrix(1,0,0,1,0,70)" opacity="0.37"></path><path d="M 0 335.76200816048805 Q 191.70278090296625 450 480 322.2783080622799 Q 654.9880919997761 450 960 335.7427451363986 Q 1284.036405968946 450 1440 333.8863397897317 Q 1659.2760041395434 450 1920 309.4884967905272 Q 2165.1162132047107 450 2400 311.94648378426706 L 2400 800 L 0 800 L 0 336.5848592521413 Z" transform="matrix(1,0,0,1,0,105)" opacity="0.68"></path><path d="M 0 335.76200816048805 Q 191.70278090296625 450 480 322.2783080622799 Q 654.9880919997761 450 960 335.7427451363986 Q 1284.036405968946 450 1440 333.8863397897317 Q 1659.2760041395434 450 1920 309.4884967905272 Q 2165.1162132047107 450 2400 311.94648378426706 L 2400 800 L 0 800 L 0 336.5848592521413 Z" transform="matrix(1,0,0,1,0,140)" opacity="1.00"></path></g></svg>